# xmcd CD database file
#
# Track frame offsets:
#	150
#	48662
#	80575
#	118287
#	148895
#	188005
#	214425
#	253855
#
# Disc length: 3814 seconds
#
# Revision: 0
# Processed by: cddbd v1.5.2PL0 Copyright (c) Steve Scherf et al.
# Submitted via: CDex 1.88
#
DISCID=820ee408
DTITLE=Ricky Ford - American African Blues
DYEAR=1993
DGENRE=Jazz
TTITLE0=American-African Blue (1st Version)
TTITLE1=Environ
TTITLE2=Of
TTITLE3=Complex Harmony
TTITLE4=Descent
TTITLE5=Mostly Arco
TTITLE6=Encore
TTITLE7=	American-African Blues (2nd Version)
EXTD=YEAR: 1993
EXTT0=
EXTT1=
EXTT2=
EXTT3=
EXTT4=
EXTT5=
EXTT6=
EXTT7=
PLAYORDER=
